HIERARCHY
ROOT Hips
{
	OFFSET -0.001795 -0.223333 0.028219
	CHANNELS 6 Xposition Yposition Zposition Zrotation Yrotation Xrotation 
	JOINT LeftUpLeg
	{
		OFFSET 0.069520 -0.091406 -0.006815
		CHANNELS 3 Zrotation Yrotation Xrotation
		JOINT LeftLeg
		{
			OFFSET 0.034277 -0.375199 -0.004496
			CHANNELS 3 Zrotation Yrotation Xrotation
			JOINT LeftFoot
			{
				OFFSET -0.013596 -0.397961 -0.043693
				CHANNELS 3 Zrotation Yrotation Xrotation
				JOINT LeftToe
				{
					OFFSET 0.026358 -0.055791 0.119288
					CHANNELS 3 Zrotation Yrotation Xrotation
					End Site
					{
						OFFSET 0.000000 0.000000 0.000000
					}
				}
			}
		}
	}
	JOINT RightUpLeg
	{
		OFFSET -0.067670 -0.090522 -0.004320
		CHANNELS 3 Zrotation Yrotation Xrotation
		JOINT RightLeg
		{
			OFFSET -0.038290 -0.382569 -0.008850
			CHANNELS 3 Zrotation Yrotation Xrotation
			JOINT RightFoot
			{
				OFFSET 0.015774 -0.398415 -0.042312
				CHANNELS 3 Zrotation Yrotation Xrotation
				JOINT RightToe
				{
					OFFSET -0.025372 -0.048144 0.123348
					CHANNELS 3 Zrotation Yrotation Xrotation
					End Site
					{
						OFFSET 0.000000 0.000000 0.000000
					}
				}
			}
		}
	}
	JOINT Spine
	{
		OFFSET -0.002533 0.108963 -0.026696
		CHANNELS 3 Zrotation Yrotation Xrotation
		JOINT Spine1
		{
			OFFSET 0.005487 0.135180 0.001092
			CHANNELS 3 Zrotation Yrotation Xrotation
			JOINT Spine2
			{
				OFFSET 0.001457 0.052922 0.025425
				CHANNELS 3 Zrotation Yrotation Xrotation
				JOINT Neck
				{
					OFFSET -0.002778 0.213870 -0.042857
					CHANNELS 3 Zrotation Yrotation Xrotation
					JOINT Head
					{
						OFFSET 0.005152 0.064970 0.051349
						CHANNELS 3 Zrotation Yrotation Xrotation
						End Site
						{
							OFFSET 0.000000 0.000000 0.000000
						}
					}
				}
				JOINT LeftShoulder
				{
					OFFSET 0.078845 0.121749 -0.034090
					CHANNELS 3 Zrotation Yrotation Xrotation
					JOINT LeftArm
					{
						OFFSET 0.090977 0.030469 -0.008868
						CHANNELS 3 Zrotation Yrotation Xrotation
						JOINT LeftForeArm
						{
							OFFSET 0.259612 -0.012772 -0.027456
							CHANNELS 3 Zrotation Yrotation Xrotation
							JOINT LeftHand
							{
								OFFSET 0.249234 0.008986 -0.001171
								CHANNELS 3 Zrotation Yrotation Xrotation
								End Site
								{
									OFFSET 0.000000 0.000000 0.000000
								}
							}
						}
					}
				}
				JOINT RightShoulder
				{
					OFFSET -0.081759 0.118833 -0.038615
					CHANNELS 3 Zrotation Yrotation Xrotation
					JOINT RightArm
					{
						OFFSET -0.096012 0.032551 -0.009143
						CHANNELS 3 Zrotation Yrotation Xrotation
						JOINT RightForeArm
						{
							OFFSET -0.253742 -0.013329 -0.021401
							CHANNELS 3 Zrotation Yrotation Xrotation
							JOINT RightHand
							{
								OFFSET -0.255298 0.007772 -0.005559
								CHANNELS 3 Zrotation Yrotation Xrotation
								End Site
								{
									OFFSET 0.000000 0.000000 0.000000
								}
							}
						}
					}
				}
			}
		}
	}
}
MOTION
Frames: 15
Frame Time: 0.050000
-0.079248 0.942923 0.227368 0.320288 5.389549 5.445662 0.944838 -0.355080 -4.019925 1.608691 -0.193561 0.698911 -0.654501 4.107048 11.731563 0.000000 0.000000 0.000000 -0.788351 0.696454 -7.229229 1.400787 -0.052700 4.918599 -2.401631 -7.632641 5.974833 0.000000 0.000000 0.000000 -1.122003 0.158769 -4.879241 1.314664 -0.583096 -0.811083 0.275963 -3.478176 1.975298 1.433040 0.166340 -15.194100 0.000000 0.000000 0.000000 -9.469478 -9.308379 3.241031 -15.277962 -28.803899 0.771624 56.387482 -66.411586 -35.082560 0.000000 0.000000 0.000000 10.086174 14.913466 5.636632 21.579954 30.556770 2.405485 137.603698 84.879487 137.633941 0.000000 0.000000 0.000000 
-0.079091 0.943190 0.226023 0.368095 5.487949 5.483668 0.764280 -0.356278 -4.036670 1.823667 -0.204410 0.480379 -0.736539 4.035532 11.861177 0.000000 0.000000 0.000000 -1.088350 0.675531 -7.115112 1.818019 -0.126905 4.497169 -2.389498 -7.644306 6.181215 0.000000 0.000000 0.000000 -1.149791 0.151374 -4.600744 1.250353 -0.554517 -0.784041 0.475178 -3.489340 1.743517 1.073268 0.397076 -15.378138 0.000000 0.000000 0.000000 -9.452630 -9.230428 3.204420 -15.636531 -29.667577 0.919956 56.424387 -65.856587 -34.745172 0.000000 0.000000 0.000000 10.397816 14.536662 5.472781 22.317065 30.027748 2.479753 134.853389 81.534887 132.119223 0.000000 0.000000 0.000000 
-0.078827 0.943205 0.224593 0.479378 5.742098 5.576150 0.520205 -0.365375 -4.146932 2.046293 -0.216306 0.291517 -0.879904 3.853538 11.910676 0.000000 0.000000 0.000000 -1.254852 0.676894 -7.208421 1.890635 -0.142111 4.385132 -2.492278 -7.863197 6.246764 0.000000 0.000000 0.000000 -1.078981 0.147533 -4.431850 1.105347 -0.485534 -0.802009 0.560212 -3.597157 1.792792 0.846881 0.543866 -15.544577 0.000000 0.000000 0.000000 -9.797813 -9.018608 3.112713 -15.693264 -30.500807 1.007134 56.953386 -65.329979 -34.789441 0.000000 0.000000 0.000000 10.386749 14.416437 5.419704 23.011556 29.536653 2.527605 133.820682 78.174630 128.224865 0.000000 0.000000 0.000000 
-0.078437 0.943338 0.223109 0.579436 6.170235 5.661155 0.313433 -0.373585 -4.248299 2.242045 -0.221352 0.055968 -1.121087 3.543371 11.983901 0.000000 0.000000 0.000000 -1.459405 0.661046 -7.123334 2.065100 -0.178343 3.992233 -2.639583 -8.187704 6.425700 0.000000 0.000000 0.000000 -0.943213 0.142076 -4.211535 1.013342 -0.437088 -0.892999 0.526104 -3.589218 1.834375 0.500619 0.771207 -15.549344 0.000000 0.000000 0.000000 -10.128038 -9.047724 3.091880 -15.936139 -31.131192 1.113168 56.584591 -64.932708 -34.337502 0.000000 0.000000 0.000000 10.524855 14.123866 5.334798 23.177793 28.883542 2.439991 135.202253 75.721550 127.912362 0.000000 0.000000 0.000000 
-0.077986 0.943195 0.221713 0.636444 6.286284 5.779093 0.227898 -0.384219 -4.369473 2.238918 -0.210154 -0.129970 -1.184356 3.453665 11.980771 0.000000 0.000000 0.000000 -1.636521 0.664361 -7.246761 2.214018 -0.203858 3.856381 -2.685575 -8.284886 6.460955 0.000000 0.000000 0.000000 -0.771931 0.144332 -4.229848 0.926732 -0.397366 -0.881271 0.479092 -3.613853 1.955186 0.414389 0.828914 -15.594812 0.000000 0.000000 0.000000 -10.430356 -8.781659 2.967415 -16.029248 -31.029652 1.113382 55.973360 -64.170734 -33.437009 0.000000 0.000000 0.000000 10.359181 14.012973 5.287828 23.402852 28.447688 2.398510 134.812667 73.961281 125.950655 0.000000 0.000000 0.000000 
-0.077569 0.943140 0.220498 0.704465 6.508066 5.743278 0.058461 -0.378157 -4.306568 2.386038 -0.211567 -0.342847 -1.308976 3.281970 11.986989 0.000000 0.000000 0.000000 -1.792853 0.648424 -7.138290 2.332690 -0.226299 3.653648 -2.764285 -8.449317 6.516660 0.000000 0.000000 0.000000 -0.653244 0.139886 -4.057473 0.856048 -0.359289 -0.967442 0.405588 -3.678156 2.038862 0.155689 0.958644 -15.142717 0.000000 0.000000 0.000000 -10.975412 -8.865873 2.994015 -15.693678 -30.568302 1.005173 55.111596 -62.496034 -31.840909 0.000000 0.000000 0.000000 10.603907 13.895013 5.258880 23.113102 27.824412 2.237703 134.851198 72.794612 125.001499 0.000000 0.000000 0.000000 
-0.077150 0.942920 0.219656 0.699950 6.550388 5.726970 0.039612 -0.365549 -4.169478 2.378065 -0.193110 -0.654352 -1.333440 3.230213 11.945999 0.000000 0.000000 0.000000 -1.830975 0.647100 -7.144252 2.356555 -0.230763 3.613297 -2.786052 -8.487435 6.485006 0.000000 0.000000 0.000000 -0.460531 0.138670 -3.961562 0.730734 -0.304869 -0.900355 0.246697 -3.589888 2.076963 0.037300 1.031625 -14.975085 0.000000 0.000000 0.000000 -11.230540 -8.492540 2.798042 -15.698607 -30.248064 0.976636 54.239077 -60.756425 -30.263951 0.000000 0.000000 0.000000 10.737340 13.586124 5.148140 23.044092 27.685267 2.195501 134.725964 72.447907 124.619809 0.000000 0.000000 0.000000 
-0.076798 0.942808 0.219143 0.722177 6.510050 5.531741 0.006189 -0.324367 -3.715534 2.337996 -0.164001 -1.119539 -1.345945 3.212000 11.966213 0.000000 0.000000 0.000000 -1.858847 0.614656 -6.757398 2.313969 -0.228288 3.251076 -2.750600 -8.413522 6.477340 0.000000 0.000000 0.000000 -0.308567 0.135586 -3.818980 0.669815 -0.276495 -0.898468 0.115093 -3.576988 2.312465 -0.111998 1.113734 -14.830375 0.000000 0.000000 0.000000 -11.919358 -8.428987 2.761804 -14.945573 -29.542317 0.776400 52.870873 -58.116915 -27.895850 0.000000 0.000000 0.000000 11.003572 13.479512 5.119295 22.867364 27.891325 2.183011 135.011920 72.775276 125.290100 0.000000 0.000000 0.000000 
-0.076498 0.942789 0.218901 0.772298 6.422995 5.423059 -0.049870 -0.294269 -3.384782 2.285272 -0.139638 -1.490366 -1.339691 3.236637 12.031301 0.000000 0.000000 0.000000 -1.857226 0.609629 -6.697368 2.163607 -0.204293 3.332238 -2.726227 -8.356515 6.418783 0.000000 0.000000 0.000000 -0.471512 0.133061 -3.774605 0.759635 -0.320037 -0.867027 0.039875 -3.531956 2.427508 -0.108644 1.110627 -14.798335 0.000000 0.000000 0.000000 -12.253663 -8.252164 2.674397 -14.488990 -28.974046 0.650527 50.631958 -54.589041 -24.661786 0.000000 0.000000 0.000000 11.164395 13.416717 5.101469 22.377298 28.552429 2.196305 137.179023 74.782029 129.699563 0.000000 0.000000 0.000000 
-0.076224 0.942598 0.218825 0.788167 5.990123 5.243798 -0.162448 -0.261133 -3.017589 2.338107 -0.134664 -1.698082 -1.130773 3.517377 12.014886 0.000000 0.000000 0.000000 -1.799452 0.594521 -6.477314 1.930659 -0.168584 3.210497 -2.557003 -7.994408 6.284432 0.000000 0.000000 0.000000 -0.394906 0.131827 -3.686204 0.799389 -0.322726 -1.163544 -0.120758 -3.150578 2.767536 -0.223579 1.203761 -14.898301 0.000000 0.000000 0.000000 -12.259835 -8.283033 2.659577 -14.056901 -28.078882 0.504640 48.366365 -50.369746 -21.364963 0.000000 0.000000 0.000000 11.143922 13.722924 5.288007 21.618251 29.348067 2.157342 142.873906 77.456059 138.780450 0.000000 0.000000 0.000000 
-0.075995 0.942742 0.218977 0.791202 5.720153 5.066431 -0.346817 -0.222386 -2.607485 2.581753 -0.139435 -2.003416 -1.030548 3.688864 12.119778 0.000000 0.000000 0.000000 -1.700844 0.583746 -6.303612 1.683050 -0.130502 3.218416 -2.445881 -7.768682 6.263916 0.000000 0.000000 0.000000 -0.512173 0.129954 -3.636554 0.825372 -0.336713 -1.137082 -0.014821 -2.983724 2.666716 -0.282724 1.240883 -14.916670 0.000000 0.000000 0.000000 -12.357092 -8.154833 2.595549 -14.164300 -27.315705 0.464035 46.172600 -46.071444 -18.296959 0.000000 0.000000 0.000000 11.113426 14.066448 5.443585 21.144642 30.548029 2.253410 155.133888 80.897854 155.295840 0.000000 0.000000 0.000000 
-0.075757 0.942517 0.219351 0.823331 5.517778 4.777136 -0.365307 -0.198222 -2.338577 2.487239 -0.143161 -1.815920 -0.907369 3.814006 11.991869 0.000000 0.000000 0.000000 -1.691797 0.568436 -6.123531 1.555570 -0.105549 3.487442 -2.387543 -7.613519 6.062101 0.000000 0.000000 0.000000 -0.674899 0.124306 -3.490071 0.935268 -0.395121 -1.007139 0.020021 -2.688683 2.479566 -0.107682 1.147637 -14.846554 0.000000 0.000000 0.000000 -12.665411 -8.017854 2.487697 -14.359436 -26.463882 0.436948 44.380570 -42.842002 -16.144324 0.000000 0.000000 0.000000 11.309087 14.219150 5.552394 20.600695 31.494704 2.289251 173.111955 83.470126 176.659124 0.000000 0.000000 0.000000 
-0.075437 0.942312 0.219819 0.828866 5.679365 4.647009 -0.409943 -0.173677 -2.082500 2.554772 -0.138670 -1.988311 -0.982351 3.679551 11.908857 0.000000 0.000000 0.000000 -1.664263 0.560245 -6.028035 1.494878 -0.094038 3.672870 -2.471674 -7.763429 5.953609 0.000000 0.000000 0.000000 -0.773643 0.125076 -3.572530 1.074460 -0.457624 -1.041467 0.049027 -2.435998 2.447526 0.179136 0.998441 -14.747615 0.000000 0.000000 0.000000 -12.730449 -7.918884 2.375376 -15.208281 -25.918287 0.514659 43.448850 -40.529243 -14.875368 0.000000 0.000000 0.000000 11.556657 14.063234 5.554659 20.677885 32.200857 2.398897 -156.794659 84.853738 -150.153943 0.000000 0.000000 0.000000 
-0.074977 0.941847 0.220217 0.785792 5.704349 4.489426 -0.409964 -0.155783 -1.887348 2.594097 -0.142421 -1.980343 -0.948314 3.652301 11.688936 0.000000 0.000000 0.000000 -1.656891 0.546515 -5.867540 1.526010 -0.097394 3.753348 -2.497902 -7.783311 5.781239 0.000000 0.000000 0.000000 -0.796432 0.126445 -3.643650 1.111977 -0.482744 -0.907226 0.238258 -2.278466 2.376016 0.219808 1.017688 -15.202535 0.000000 0.000000 0.000000 -12.932273 -7.664203 2.224047 -15.776246 -25.318863 0.538891 43.265606 -39.612559 -14.460973 0.000000 0.000000 0.000000 11.470566 14.176224 5.624386 21.008512 33.026847 2.592315 -126.950546 84.510741 -117.871471 0.000000 0.000000 0.000000 
-0.074428 0.941315 0.220310 0.910080 5.777435 4.350869 -0.617047 -0.152606 -1.886853 2.669315 -0.165780 -1.677418 -0.928298 3.598670 11.445267 0.000000 0.000000 0.000000 -1.819080 0.534730 -5.794186 1.527283 -0.094080 3.966839 -2.566036 -7.874659 5.521702 0.000000 0.000000 0.000000 -0.933588 0.124423 -3.647981 1.019133 -0.442992 -0.841952 0.488621 -2.226316 2.129135 0.041110 1.121451 -15.108988 0.000000 0.000000 0.000000 -12.772176 -7.415108 2.100896 -16.100268 -25.034841 0.562365 43.260109 -39.031042 -14.235683 0.000000 0.000000 0.000000 11.342583 14.103248 5.579841 20.945287 33.712257 2.694936 -105.924328 83.415614 -94.981570 0.000000 0.000000 0.000000 
